<svg xmlns="http://www.w3.org/2000/svg" xmlns:xlink="http://www.w3.org/1999/xlink" width="840" height="581.04"><rect width="840" height="581.04" rx="5" ry="5" class="a"/><svg y="0%" x="0%"><circle cx="20" cy="20" r="6" fill="#ff5f58"/><circle cx="40" cy="20" r="6" fill="#ffbd2e"/><circle cx="60" cy="20" r="6" fill="#18c132"/></svg><svg height="521.04" viewBox="0 0 80 52.104" width="800" x="15" xmlns="http://www.w3.org/2000/svg" xmlns:xlink="http://www.w3.org/1999/xlink" y="50"><style>@keyframes m{0%{transform:translateX(0)}.07%{transform:translateX(-80px)}8.43%{transform:translateX(-160px)}10.73%{transform:translateX(-240px)}11.46%{transform:translateX(-320px)}12.06%{transform:translateX(-400px)}12.58%{transform:translateX(-480px)}13.58%{transform:translateX(-560px)}14.31%{transform:translateX(-640px)}14.86%{transform:translateX(-720px)}17.2%{transform:translateX(-800px)}18.02%{transform:translateX(-880px)}18.95%{transform:translateX(-960px)}19.73%{transform:translateX(-1040px)}20.52%{transform:translateX(-1120px)}21%{transform:translateX(-1200px)}21.59%{transform:translateX(-1280px)}22.24%{transform:translateX(-1360px)}23.39%{transform:translateX(-1520px)}29.11%{transform:translateX(-1600px)}31.35%{transform:translateX(-1680px)}32.13%{transform:translateX(-1760px)}32.6%{transform:translateX(-1840px)}33.31%{transform:translateX(-1920px)}34.27%{transform:translateX(-2000px)}36.07%{transform:translateX(-2080px)}36.83%{transform:translateX(-2160px)}37.77%{transform:translateX(-2240px)}38.16%{transform:translateX(-2320px)}38.74%{transform:translateX(-2400px)}39.15%{transform:translateX(-2480px)}39.85%{transform:translateX(-2560px)}40.65%{transform:translateX(-2640px)}41.17%{transform:translateX(-2720px)}47.21%{transform:translateX(-2800px)}47.96%{transform:translateX(-2880px)}56.67%{transform:translateX(-2960px)}57.39%{transform:translateX(-3040px)}58.03%{transform:translateX(-3120px)}59.77%{transform:translateX(-3280px)}62.88%{transform:translateX(-3360px)}64.07%{transform:translateX(-3440px)}64.63%{transform:translateX(-3520px)}67.29%{transform:translateX(-3600px)}67.96%{transform:translateX(-3680px)}72.17%{transform:translateX(-3760px)}73.15%{transform:translateX(-3840px)}74.35%{transform:translateX(-3920px)}75.36%{transform:translateX(-4000px)}77.01%{transform:translateX(-4080px)}77.63%{transform:translateX(-4160px)}78.86%{transform:translateX(-4240px)}82.51%{transform:translateX(-4320px)}83.15%{transform:translateX(-4400px)}84.11%{transform:translateX(-4480px)}84.93%{transform:translateX(-4560px)}85.75%{transform:translateX(-4640px)}86.01%{transform:translateX(-4720px)}86.06%{transform:translateX(-4800px)}86.08%{transform:translateX(-4960px)}96.11%{transform:translateX(-5040px)}97.37%{transform:translateX(-5120px)}98.28%{transform:translateX(-5200px)}99.04%{transform:translateX(-5280px)}to{transform:translateX(-5360px)}}.a{fill:#282d35}.g,.h,.i,.j{fill:#b9c0cb;white-space:pre}.h,.i,.j{fill:#71bef2;font-weight:700}.i,.j{fill:#e88388}.j{fill:#dbab79}</style><g font-family="Monaco,Consolas,Menlo,'Bitstream Vera Sans Mono','Powerline Symbols',monospace" font-size="1.67"><defs><symbol id="13"><text y="1.67" class="h">acion</text><text x="5.01" y="1.67" class="g">$</text><text x="7.014" y="1.67" class="g">apt</text><text x="11.022" y="1.67" class="g">update</text></symbol><symbol id="1"><text y="1.67" style="white-space:pre" fill="#a8cc8c" font-weight="700">jorgealejandro@superdell-popos</text><text x="30.06" y="1.67" class="g">:</text><text x="31.062" y="1.67" class="h">~/Documents/Tareas/2021/SeptimoSemestre/Lab-Simul</text></symbol><symbol id="3"><text y="1.67" class="h">acion</text><text x="5.01" y="1.67" class="g">$</text><text x="7.014" y="1.67" class="g">#</text></symbol><symbol id="4"><text y="1.67" class="h">acion</text><text x="5.01" y="1.67" class="g">$</text><text x="7.014" y="1.67" class="g">#prueba</text></symbol><symbol id="5"><text y="1.67" class="h">acion</text><text x="5.01" y="1.67" class="g">$</text><text x="7.014" y="1.67" class="g">#prueba</text><text x="15.03" y="1.67" class="g">numero</text></symbol><symbol id="6"><text y="1.67" class="h">acion</text><text x="5.01" y="1.67" class="g">$</text><text x="7.014" y="1.67" class="g">#prueba</text><text x="15.03" y="1.67" class="g">numero</text><text x="22.044" y="1.67" class="g">1</text></symbol><symbol id="7"><text y="1.67" class="h">acion</text><text x="5.01" y="1.67" class="g">$</text><text x="7.014" y="1.67" class="g">#intetntemos</text></symbol><symbol id="8"><text y="1.67" class="h">acion</text><text x="5.01" y="1.67" class="g">$</text><text x="7.014" y="1.67" class="g">#intetntemos</text><text x="20.04" y="1.67" class="g">s</text></symbol><symbol id="9"><text y="1.67" class="h">acion</text><text x="5.01" y="1.67" class="g">$</text><text x="7.014" y="1.67" class="g">#intetntemos</text><text x="20.04" y="1.67" class="g">apt</text></symbol><symbol id="10"><text y="1.67" class="h">acion</text><text x="5.01" y="1.67" class="g">$</text><text x="7.014" y="1.67" class="g">apt</text></symbol><symbol id="11"><text y="1.67" class="h">acion</text><text x="5.01" y="1.67" class="g">$</text><text x="7.014" y="1.67" class="g">apt</text><text x="11.022" y="1.67" class="g">u</text></symbol><symbol id="12"><text y="1.67" class="h">acion</text><text x="5.01" y="1.67" class="g">$</text><text x="7.014" y="1.67" class="g">apt</text><text x="11.022" y="1.67" class="g">un</text></symbol><symbol id="2"><text y="1.67" class="h">acion</text><text x="5.01" y="1.67" class="g">$</text></symbol><symbol id="14"><text y="1.67" class="g">Reading</text><text x="8.016" y="1.67" class="g">package</text><text x="16.032" y="1.67" class="g">lists...</text><text x="25.05" y="1.67" class="g">Done</text></symbol><symbol id="15"><text y="1.67" class="i">E:</text><text x="3.006" y="1.67" class="g">Could</text><text x="9.018" y="1.67" class="g">not</text><text x="13.026" y="1.67" class="g">open</text><text x="18.036" y="1.67" class="g">lock</text><text x="23.046" y="1.67" class="g">file</text><text x="28.056" y="1.67" class="g">/var/lib/apt/lists/lock</text><text x="52.104" y="1.67" class="g">-</text><text x="54.108" y="1.67" class="g">open</text><text x="59.118" y="1.67" class="g">(13:</text><text x="64.128" y="1.67" class="g">Permission</text><text x="75.15" y="1.67" class="g">denie</text></symbol><symbol id="16"><text y="1.67" class="g">d)</text></symbol><symbol id="17"><text y="1.67" class="i">E:</text><text x="3.006" y="1.67" class="g">Unable</text><text x="10.02" y="1.67" class="g">to</text><text x="13.026" y="1.67" class="g">lock</text><text x="18.036" y="1.67" class="g">directory</text><text x="28.056" y="1.67" class="g">/var/lib/apt/lists/</text></symbol><symbol id="18"><text y="1.67" class="j">W:</text><text x="3.006" y="1.67" class="g">Problem</text><text x="11.022" y="1.67" class="g">unlinking</text><text x="21.042" y="1.67" class="g">the</text><text x="25.05" y="1.67" class="g">file</text><text x="30.06" y="1.67" class="g">/var/cache/apt/pkgcache.bin</text><text x="58.116" y="1.67" class="g">-</text><text x="60.12" y="1.67" class="g">RemoveCaches</text><text x="73.146" y="1.67" class="g">(13:</text><text x="78.156" y="1.67" class="g">Pe</text></symbol><symbol id="19"><text y="1.67" class="g">rmission</text><text x="9.018" y="1.67" class="g">denied)</text></symbol><symbol id="20"><text y="1.67" class="j">W:</text><text x="3.006" y="1.67" class="g">Problem</text><text x="11.022" y="1.67" class="g">unlinking</text><text x="21.042" y="1.67" class="g">the</text><text x="25.05" y="1.67" class="g">file</text><text x="30.06" y="1.67" class="g">/var/cache/apt/srcpkgcache.bin</text><text x="61.122" y="1.67" class="g">-</text><text x="63.126" y="1.67" class="g">RemoveCaches</text><text x="76.152" y="1.67" class="g">(13:</text></symbol><symbol id="21"><text x="1.002" y="1.67" class="g">Permission</text><text x="12.024" y="1.67" class="g">denied)</text></symbol><symbol id="22"><text y="1.67" class="h">acion</text><text x="5.01" y="1.67" class="g">$</text><text x="7.014" y="1.67" class="g">exit</text></symbol><symbol id="a"><path fill="transparent" d="M0 0h80v24H0z"/></symbol><symbol id="b"><path fill="#6f7683" d="M0 0h1.102v2.171H0z"/></symbol></defs><path class="a" d="M0 0h80v52.104H0z"/><g style="animation-duration:24.021978s;animation-iteration-count:infinite;animation-name:m;animation-timing-function:steps(1,end)"><svg width="5440"><svg><use xlink:href="#a"/><use xlink:href="#b" x="-.004"/></svg><svg x="80"><use xlink:href="#a"/><use xlink:href="#b" x="6.996" y="2.146"/><use xlink:href="#1"/><use xlink:href="#2" y="2.171"/></svg><svg x="160"><use xlink:href="#a"/><use xlink:href="#b" x="7.996" y="2.146"/><use xlink:href="#1"/><use xlink:href="#3" y="2.171"/></svg><svg x="240"><use xlink:href="#a"/><use xlink:href="#b" x="8.996" y="2.146"/><use xlink:href="#1"/><text y="3.841" class="h">acion</text><text x="5.01" y="3.841" class="g">$</text><text x="7.014" y="3.841" class="g">#p</text></svg><svg x="320"><use xlink:href="#a"/><use xlink:href="#b" x="9.996" y="2.146"/><use xlink:href="#1"/><text y="3.841" class="h">acion</text><text x="5.01" y="3.841" class="g">$</text><text x="7.014" y="3.841" class="g">#pr</text></svg><svg x="400"><use xlink:href="#a"/><use xlink:href="#b" x="10.996" y="2.146"/><use xlink:href="#1"/><text y="3.841" class="h">acion</text><text x="5.01" y="3.841" class="g">$</text><text x="7.014" y="3.841" class="g">#pru</text></svg><svg x="480"><use xlink:href="#a"/><use xlink:href="#b" x="11.996" y="2.146"/><use xlink:href="#1"/><text y="3.841" class="h">acion</text><text x="5.01" y="3.841" class="g">$</text><text x="7.014" y="3.841" class="g">#prue</text></svg><svg x="560"><use xlink:href="#a"/><use xlink:href="#b" x="12.996" y="2.146"/><use xlink:href="#1"/><text y="3.841" class="h">acion</text><text x="5.01" y="3.841" class="g">$</text><text x="7.014" y="3.841" class="g">#prueb</text></svg><svg x="640"><use xlink:href="#a"/><use xlink:href="#b" x="13.996" y="2.146"/><use xlink:href="#1"/><use xlink:href="#4" y="2.171"/></svg><svg x="720"><use xlink:href="#a"/><use xlink:href="#b" x="14.996" y="2.146"/><use xlink:href="#1"/><use xlink:href="#4" y="2.171"/></svg><svg x="800"><use xlink:href="#a"/><use xlink:href="#b" x="15.996" y="2.146"/><use xlink:href="#1"/><text y="3.841" class="h">acion</text><text x="5.01" y="3.841" class="g">$</text><text x="7.014" y="3.841" class="g">#prueba</text><text x="15.03" y="3.841" class="g">n</text></svg><svg x="880"><use xlink:href="#a"/><use xlink:href="#b" x="16.996" y="2.146"/><use xlink:href="#1"/><text y="3.841" class="h">acion</text><text x="5.01" y="3.841" class="g">$</text><text x="7.014" y="3.841" class="g">#prueba</text><text x="15.03" y="3.841" class="g">nu</text></svg><svg x="960"><use xlink:href="#a"/><use xlink:href="#b" x="17.996" y="2.146"/><use xlink:href="#1"/><text y="3.841" class="h">acion</text><text x="5.01" y="3.841" class="g">$</text><text x="7.014" y="3.841" class="g">#prueba</text><text x="15.03" y="3.841" class="g">num</text></svg><svg x="1040"><use xlink:href="#a"/><use xlink:href="#b" x="18.996" y="2.146"/><use xlink:href="#1"/><text y="3.841" class="h">acion</text><text x="5.01" y="3.841" class="g">$</text><text x="7.014" y="3.841" class="g">#prueba</text><text x="15.03" y="3.841" class="g">nume</text></svg><svg x="1120"><use xlink:href="#a"/><use xlink:href="#b" x="19.996" y="2.146"/><use xlink:href="#1"/><text y="3.841" class="h">acion</text><text x="5.01" y="3.841" class="g">$</text><text x="7.014" y="3.841" class="g">#prueba</text><text x="15.03" y="3.841" class="g">numer</text></svg><svg x="1200"><use xlink:href="#a"/><use xlink:href="#b" x="20.996" y="2.146"/><use xlink:href="#1"/><use xlink:href="#5" y="2.171"/></svg><svg x="1280"><use xlink:href="#a"/><use xlink:href="#b" x="21.996" y="2.146"/><use xlink:href="#1"/><use xlink:href="#5" y="2.171"/></svg><svg x="1360"><use xlink:href="#a"/><use xlink:href="#b" x="22.996" y="2.146"/><use xlink:href="#1"/><use xlink:href="#6" y="2.171"/></svg><svg x="1440"><use xlink:href="#a"/><use xlink:href="#b" x="-.004" y="4.317"/><use xlink:href="#1"/><use xlink:href="#6" y="2.171"/></svg><svg x="1520"><use xlink:href="#a"/><use xlink:href="#b" x="6.996" y="6.488"/><use xlink:href="#1"/><use xlink:href="#6" y="2.171"/><use xlink:href="#1" y="4.342"/><use xlink:href="#2" y="6.513"/></svg><svg x="1600"><use xlink:href="#a"/><use xlink:href="#b" x="7.996" y="6.488"/><use xlink:href="#1"/><use xlink:href="#6" y="2.171"/><use xlink:href="#1" y="4.342"/><use xlink:href="#3" y="6.513"/></svg><svg x="1680"><use xlink:href="#a"/><use xlink:href="#b" x="8.996" y="6.488"/><use xlink:href="#1"/><use xlink:href="#6" y="2.171"/><use xlink:href="#1" y="4.342"/><text y="8.183" class="h">acion</text><text x="5.01" y="8.183" class="g">$</text><text x="7.014" y="8.183" class="g">#i</text></svg><svg x="1760"><use xlink:href="#a"/><use xlink:href="#b" x="9.996" y="6.488"/><use xlink:href="#1"/><use xlink:href="#6" y="2.171"/><use xlink:href="#1" y="4.342"/><text y="8.183" class="h">acion</text><text x="5.01" y="8.183" class="g">$</text><text x="7.014" y="8.183" class="g">#in</text></svg><svg x="1840"><use xlink:href="#a"/><use xlink:href="#b" x="10.996" y="6.488"/><use xlink:href="#1"/><use xlink:href="#6" y="2.171"/><use xlink:href="#1" y="4.342"/><text y="8.183" class="h">acion</text><text x="5.01" y="8.183" class="g">$</text><text x="7.014" y="8.183" class="g">#int</text></svg><svg x="1920"><use xlink:href="#a"/><use xlink:href="#b" x="11.996" y="6.488"/><use xlink:href="#1"/><use xlink:href="#6" y="2.171"/><use xlink:href="#1" y="4.342"/><text y="8.183" class="h">acion</text><text x="5.01" y="8.183" class="g">$</text><text x="7.014" y="8.183" class="g">#inte</text></svg><svg x="2000"><use xlink:href="#a"/><use xlink:href="#b" x="12.996" y="6.488"/><use xlink:href="#1"/><use xlink:href="#6" y="2.171"/><use xlink:href="#1" y="4.342"/><text y="8.183" class="h">acion</text><text x="5.01" y="8.183" class="g">$</text><text x="7.014" y="8.183" class="g">#intet</text></svg><svg x="2080"><use xlink:href="#a"/><use xlink:href="#b" x="13.996" y="6.488"/><use xlink:href="#1"/><use xlink:href="#6" y="2.171"/><use xlink:href="#1" y="4.342"/><text y="8.183" class="h">acion</text><text x="5.01" y="8.183" class="g">$</text><text x="7.014" y="8.183" class="g">#intetn</text></svg><svg x="2160"><use xlink:href="#a"/><use xlink:href="#b" x="14.996" y="6.488"/><use xlink:href="#1"/><use xlink:href="#6" y="2.171"/><use xlink:href="#1" y="4.342"/><text y="8.183" class="h">acion</text><text x="5.01" y="8.183" class="g">$</text><text x="7.014" y="8.183" class="g">#intetnt</text></svg><svg x="2240"><use xlink:href="#a"/><use xlink:href="#b" x="15.996" y="6.488"/><use xlink:href="#1"/><use xlink:href="#6" y="2.171"/><use xlink:href="#1" y="4.342"/><text y="8.183" class="h">acion</text><text x="5.01" y="8.183" class="g">$</text><text x="7.014" y="8.183" class="g">#intetnte</text></svg><svg x="2320"><use xlink:href="#a"/><use xlink:href="#b" x="16.996" y="6.488"/><use xlink:href="#1"/><use xlink:href="#6" y="2.171"/><use xlink:href="#1" y="4.342"/><text y="8.183" class="h">acion</text><text x="5.01" y="8.183" class="g">$</text><text x="7.014" y="8.183" class="g">#intetntem</text></svg><svg x="2400"><use xlink:href="#a"/><use xlink:href="#b" x="17.996" y="6.488"/><use xlink:href="#1"/><use xlink:href="#6" y="2.171"/><use xlink:href="#1" y="4.342"/><text y="8.183" class="h">acion</text><text x="5.01" y="8.183" class="g">$</text><text x="7.014" y="8.183" class="g">#intetntemo</text></svg><svg x="2480"><use xlink:href="#a"/><use xlink:href="#b" x="18.996" y="6.488"/><use xlink:href="#1"/><use xlink:href="#6" y="2.171"/><use xlink:href="#1" y="4.342"/><use xlink:href="#7" y="6.513"/></svg><svg x="2560"><use xlink:href="#a"/><use xlink:href="#b" x="19.996" y="6.488"/><use xlink:href="#1"/><use xlink:href="#6" y="2.171"/><use xlink:href="#1" y="4.342"/><use xlink:href="#7" y="6.513"/></svg><svg x="2640"><use xlink:href="#a"/><use xlink:href="#b" x="20.996" y="6.488"/><use xlink:href="#1"/><use xlink:href="#6" y="2.171"/><use xlink:href="#1" y="4.342"/><use xlink:href="#8" y="6.513"/></svg><svg x="2720"><use xlink:href="#a"/><use xlink:href="#b" x="21.996" y="6.488"/><use xlink:href="#1"/><use xlink:href="#6" y="2.171"/><use xlink:href="#1" y="4.342"/><text y="8.183" class="h">acion</text><text x="5.01" y="8.183" class="g">$</text><text x="7.014" y="8.183" class="g">#intetntemos</text><text x="20.04" y="8.183" class="g">su</text></svg><svg x="2800"><use xlink:href="#a"/><use xlink:href="#b" x="20.996" y="6.488"/><use xlink:href="#1"/><use xlink:href="#6" y="2.171"/><use xlink:href="#1" y="4.342"/><use xlink:href="#8" y="6.513"/></svg><svg x="2880"><use xlink:href="#a"/><use xlink:href="#b" x="19.996" y="6.488"/><use xlink:href="#1"/><use xlink:href="#6" y="2.171"/><use xlink:href="#1" y="4.342"/><use xlink:href="#7" y="6.513"/></svg><svg x="2960"><use xlink:href="#a"/><use xlink:href="#b" x="20.996" y="6.488"/><use xlink:href="#1"/><use xlink:href="#6" y="2.171"/><use xlink:href="#1" y="4.342"/><text y="8.183" class="h">acion</text><text x="5.01" y="8.183" class="g">$</text><text x="7.014" y="8.183" class="g">#intetntemos</text><text x="20.04" y="8.183" class="g">a</text></svg><svg x="3040"><use xlink:href="#a"/><use xlink:href="#b" x="21.996" y="6.488"/><use xlink:href="#1"/><use xlink:href="#6" y="2.171"/><use xlink:href="#1" y="4.342"/><text y="8.183" class="h">acion</text><text x="5.01" y="8.183" class="g">$</text><text x="7.014" y="8.183" class="g">#intetntemos</text><text x="20.04" y="8.183" class="g">ap</text></svg><svg x="3120"><use xlink:href="#a"/><use xlink:href="#b" x="22.996" y="6.488"/><use xlink:href="#1"/><use xlink:href="#6" y="2.171"/><use xlink:href="#1" y="4.342"/><use xlink:href="#9" y="6.513"/></svg><svg x="3200"><use xlink:href="#a"/><use xlink:href="#b" x="-.004" y="8.659"/><use xlink:href="#1"/><use xlink:href="#6" y="2.171"/><use xlink:href="#1" y="4.342"/><use xlink:href="#9" y="6.513"/></svg><svg x="3280"><use xlink:href="#a"/><use xlink:href="#b" x="6.996" y="10.83"/><use xlink:href="#1"/><use xlink:href="#6" y="2.171"/><use xlink:href="#1" y="4.342"/><use xlink:href="#9" y="6.513"/><use xlink:href="#1" y="8.684"/><use xlink:href="#2" y="10.855"/></svg><svg x="3360"><use xlink:href="#a"/><use xlink:href="#b" x="7.996" y="10.83"/><use xlink:href="#1"/><use xlink:href="#6" y="2.171"/><use xlink:href="#1" y="4.342"/><use xlink:href="#9" y="6.513"/><use xlink:href="#1" y="8.684"/><text y="12.525" class="h">acion</text><text x="5.01" y="12.525" class="g">$</text><text x="7.014" y="12.525" class="g">a</text></svg><svg x="3440"><use xlink:href="#a"/><use xlink:href="#b" x="8.996" y="10.83"/><use xlink:href="#1"/><use xlink:href="#6" y="2.171"/><use xlink:href="#1" y="4.342"/><use xlink:href="#9" y="6.513"/><use xlink:href="#1" y="8.684"/><text y="12.525" class="h">acion</text><text x="5.01" y="12.525" class="g">$</text><text x="7.014" y="12.525" class="g">ap</text></svg><svg x="3520"><use xlink:href="#a"/><use xlink:href="#b" x="9.996" y="10.83"/><use xlink:href="#1"/><use xlink:href="#6" y="2.171"/><use xlink:href="#1" y="4.342"/><use xlink:href="#9" y="6.513"/><use xlink:href="#1" y="8.684"/><use xlink:href="#10" y="10.855"/></svg><svg x="3600"><use xlink:href="#a"/><use xlink:href="#b" x="10.996" y="10.83"/><use xlink:href="#1"/><use xlink:href="#6" y="2.171"/><use xlink:href="#1" y="4.342"/><use xlink:href="#9" y="6.513"/><use xlink:href="#1" y="8.684"/><use xlink:href="#10" y="10.855"/></svg><svg x="3680"><use xlink:href="#a"/><use xlink:href="#b" x="11.996" y="10.83"/><use xlink:href="#1"/><use xlink:href="#6" y="2.171"/><use xlink:href="#1" y="4.342"/><use xlink:href="#9" y="6.513"/><use xlink:href="#1" y="8.684"/><text y="12.525" class="h">acion</text><text x="5.01" y="12.525" class="g">$</text><text x="7.014" y="12.525" class="g">apt</text><text x="11.022" y="12.525" class="g">g</text></svg><svg x="3760"><use xlink:href="#a"/><use xlink:href="#b" x="10.996" y="10.83"/><use xlink:href="#1"/><use xlink:href="#6" y="2.171"/><use xlink:href="#1" y="4.342"/><use xlink:href="#9" y="6.513"/><use xlink:href="#1" y="8.684"/><use xlink:href="#10" y="10.855"/></svg><svg x="3840"><use xlink:href="#a"/><use xlink:href="#b" x="11.996" y="10.83"/><use xlink:href="#1"/><use xlink:href="#6" y="2.171"/><use xlink:href="#1" y="4.342"/><use xlink:href="#9" y="6.513"/><use xlink:href="#1" y="8.684"/><use xlink:href="#11" y="10.855"/></svg><svg x="3920"><use xlink:href="#a"/><use xlink:href="#b" x="12.996" y="10.83"/><use xlink:href="#1"/><use xlink:href="#6" y="2.171"/><use xlink:href="#1" y="4.342"/><use xlink:href="#9" y="6.513"/><use xlink:href="#1" y="8.684"/><use xlink:href="#12" y="10.855"/></svg><svg x="4000"><use xlink:href="#a"/><use xlink:href="#b" x="13.996" y="10.83"/><use xlink:href="#1"/><use xlink:href="#6" y="2.171"/><use xlink:href="#1" y="4.342"/><use xlink:href="#9" y="6.513"/><use xlink:href="#1" y="8.684"/><text y="12.525" class="h">acion</text><text x="5.01" y="12.525" class="g">$</text><text x="7.014" y="12.525" class="g">apt</text><text x="11.022" y="12.525" class="g">unp</text></svg><svg x="4080"><use xlink:href="#a"/><use xlink:href="#b" x="12.996" y="10.83"/><use xlink:href="#1"/><use xlink:href="#6" y="2.171"/><use xlink:href="#1" y="4.342"/><use xlink:href="#9" y="6.513"/><use xlink:href="#1" y="8.684"/><use xlink:href="#12" y="10.855"/></svg><svg x="4160"><use xlink:href="#a"/><use xlink:href="#b" x="11.996" y="10.83"/><use xlink:href="#1"/><use xlink:href="#6" y="2.171"/><use xlink:href="#1" y="4.342"/><use xlink:href="#9" y="6.513"/><use xlink:href="#1" y="8.684"/><use xlink:href="#11" y="10.855"/></svg><svg x="4240"><use xlink:href="#a"/><use xlink:href="#b" x="12.996" y="10.83"/><use xlink:href="#1"/><use xlink:href="#6" y="2.171"/><use xlink:href="#1" y="4.342"/><use xlink:href="#9" y="6.513"/><use xlink:href="#1" y="8.684"/><text y="12.525" class="h">acion</text><text x="5.01" y="12.525" class="g">$</text><text x="7.014" y="12.525" class="g">apt</text><text x="11.022" y="12.525" class="g">up</text></svg><svg x="4320"><use xlink:href="#a"/><use xlink:href="#b" x="13.996" y="10.83"/><use xlink:href="#1"/><use xlink:href="#6" y="2.171"/><use xlink:href="#1" y="4.342"/><use xlink:href="#9" y="6.513"/><use xlink:href="#1" y="8.684"/><text y="12.525" class="h">acion</text><text x="5.01" y="12.525" class="g">$</text><text x="7.014" y="12.525" class="g">apt</text><text x="11.022" y="12.525" class="g">upd</text></svg><svg x="4400"><use xlink:href="#a"/><use xlink:href="#b" x="14.996" y="10.83"/><use xlink:href="#1"/><use xlink:href="#6" y="2.171"/><use xlink:href="#1" y="4.342"/><use xlink:href="#9" y="6.513"/><use xlink:href="#1" y="8.684"/><text y="12.525" class="h">acion</text><text x="5.01" y="12.525" class="g">$</text><text x="7.014" y="12.525" class="g">apt</text><text x="11.022" y="12.525" class="g">upda</text></svg><svg x="4480"><use xlink:href="#a"/><use xlink:href="#b" x="15.996" y="10.83"/><use xlink:href="#1"/><use xlink:href="#6" y="2.171"/><use xlink:href="#1" y="4.342"/><use xlink:href="#9" y="6.513"/><use xlink:href="#1" y="8.684"/><text y="12.525" class="h">acion</text><text x="5.01" y="12.525" class="g">$</text><text x="7.014" y="12.525" class="g">apt</text><text x="11.022" y="12.525" class="g">updat</text></svg><svg x="4560"><use xlink:href="#a"/><use xlink:href="#b" x="16.996" y="10.83"/><use xlink:href="#1"/><use xlink:href="#6" y="2.171"/><use xlink:href="#1" y="4.342"/><use xlink:href="#9" y="6.513"/><use xlink:href="#1" y="8.684"/><use xlink:href="#13" y="10.855"/></svg><svg x="4640"><use xlink:href="#a"/><use xlink:href="#b" x="-.004" y="13.001"/><use xlink:href="#1"/><use xlink:href="#6" y="2.171"/><use xlink:href="#1" y="4.342"/><use xlink:href="#9" y="6.513"/><use xlink:href="#1" y="8.684"/><use xlink:href="#13" y="10.855"/></svg><svg x="4720"><use xlink:href="#a"/><use xlink:href="#b" x="-.004" y="13.001"/><use xlink:href="#1"/><use xlink:href="#6" y="2.171"/><use xlink:href="#1" y="4.342"/><use xlink:href="#9" y="6.513"/><use xlink:href="#1" y="8.684"/><use xlink:href="#13" y="10.855"/><text y="14.696" class="g">Reading</text><text x="8.016" y="14.696" class="g">package</text><text x="16.032" y="14.696" class="g">lists...</text><text x="25.05" y="14.696" class="g">0%</text></svg><svg x="4800"><use xlink:href="#a"/><use xlink:href="#b" x="-.004" y="15.172"/><use xlink:href="#1"/><use xlink:href="#6" y="2.171"/><use xlink:href="#1" y="4.342"/><use xlink:href="#9" y="6.513"/><use xlink:href="#1" y="8.684"/><use xlink:href="#13" y="10.855"/><use xlink:href="#14" y="13.026"/></svg><svg x="4880"><use xlink:href="#a"/><use xlink:href="#b" x="-.004" y="30.369"/><use xlink:href="#1"/><use xlink:href="#6" y="2.171"/><use xlink:href="#1" y="4.342"/><use xlink:href="#9" y="6.513"/><use xlink:href="#1" y="8.684"/><use xlink:href="#13" y="10.855"/><use xlink:href="#14" y="13.026"/><use xlink:href="#15" y="15.197"/><use xlink:href="#16" y="17.368"/><use xlink:href="#17" y="19.539"/><use xlink:href="#18" y="21.71"/><use xlink:href="#19" y="23.881"/><use xlink:href="#20" y="26.052"/><use xlink:href="#21" y="28.223"/></svg><svg x="4960"><use xlink:href="#a"/><use xlink:href="#b" x="6.996" y="32.54"/><use xlink:href="#1"/><use xlink:href="#6" y="2.171"/><use xlink:href="#1" y="4.342"/><use xlink:href="#9" y="6.513"/><use xlink:href="#1" y="8.684"/><use xlink:href="#13" y="10.855"/><use xlink:href="#14" y="13.026"/><use xlink:href="#15" y="15.197"/><use xlink:href="#16" y="17.368"/><use xlink:href="#17" y="19.539"/><use xlink:href="#18" y="21.71"/><use xlink:href="#19" y="23.881"/><use xlink:href="#20" y="26.052"/><use xlink:href="#21" y="28.223"/><use xlink:href="#1" y="30.394"/><use xlink:href="#2" y="32.565"/></svg><svg x="5040"><use xlink:href="#a"/><use xlink:href="#b" x="7.996" y="32.54"/><use xlink:href="#1"/><use xlink:href="#6" y="2.171"/><use xlink:href="#1" y="4.342"/><use xlink:href="#9" y="6.513"/><use xlink:href="#1" y="8.684"/><use xlink:href="#13" y="10.855"/><use xlink:href="#14" y="13.026"/><use xlink:href="#15" y="15.197"/><use xlink:href="#16" y="17.368"/><use xlink:href="#17" y="19.539"/><use xlink:href="#18" y="21.71"/><use xlink:href="#19" y="23.881"/><use xlink:href="#20" y="26.052"/><use xlink:href="#21" y="28.223"/><use xlink:href="#1" y="30.394"/><text y="34.235" class="h">acion</text><text x="5.01" y="34.235" class="g">$</text><text x="7.014" y="34.235" class="g">e</text></svg><svg x="5120"><use xlink:href="#a"/><use xlink:href="#b" x="8.996" y="32.54"/><use xlink:href="#1"/><use xlink:href="#6" y="2.171"/><use xlink:href="#1" y="4.342"/><use xlink:href="#9" y="6.513"/><use xlink:href="#1" y="8.684"/><use xlink:href="#13" y="10.855"/><use xlink:href="#14" y="13.026"/><use xlink:href="#15" y="15.197"/><use xlink:href="#16" y="17.368"/><use xlink:href="#17" y="19.539"/><use xlink:href="#18" y="21.71"/><use xlink:href="#19" y="23.881"/><use xlink:href="#20" y="26.052"/><use xlink:href="#21" y="28.223"/><use xlink:href="#1" y="30.394"/><text y="34.235" class="h">acion</text><text x="5.01" y="34.235" class="g">$</text><text x="7.014" y="34.235" class="g">ex</text></svg><svg x="5200"><use xlink:href="#a"/><use xlink:href="#b" x="9.996" y="32.54"/><use xlink:href="#1"/><use xlink:href="#6" y="2.171"/><use xlink:href="#1" y="4.342"/><use xlink:href="#9" y="6.513"/><use xlink:href="#1" y="8.684"/><use xlink:href="#13" y="10.855"/><use xlink:href="#14" y="13.026"/><use xlink:href="#15" y="15.197"/><use xlink:href="#16" y="17.368"/><use xlink:href="#17" y="19.539"/><use xlink:href="#18" y="21.71"/><use xlink:href="#19" y="23.881"/><use xlink:href="#20" y="26.052"/><use xlink:href="#21" y="28.223"/><use xlink:href="#1" y="30.394"/><text y="34.235" class="h">acion</text><text x="5.01" y="34.235" class="g">$</text><text x="7.014" y="34.235" class="g">exi</text></svg><svg x="5280"><use xlink:href="#a"/><use xlink:href="#b" x="10.996" y="32.54"/><use xlink:href="#1"/><use xlink:href="#6" y="2.171"/><use xlink:href="#1" y="4.342"/><use xlink:href="#9" y="6.513"/><use xlink:href="#1" y="8.684"/><use xlink:href="#13" y="10.855"/><use xlink:href="#14" y="13.026"/><use xlink:href="#15" y="15.197"/><use xlink:href="#16" y="17.368"/><use xlink:href="#17" y="19.539"/><use xlink:href="#18" y="21.71"/><use xlink:href="#19" y="23.881"/><use xlink:href="#20" y="26.052"/><use xlink:href="#21" y="28.223"/><use xlink:href="#1" y="30.394"/><use xlink:href="#22" y="32.565"/></svg><svg x="5360"><use xlink:href="#a"/><use xlink:href="#b" x="-.004" y="36.882"/><use xlink:href="#1"/><use xlink:href="#6" y="2.171"/><use xlink:href="#1" y="4.342"/><use xlink:href="#9" y="6.513"/><use xlink:href="#1" y="8.684"/><use xlink:href="#13" y="10.855"/><use xlink:href="#14" y="13.026"/><use xlink:href="#15" y="15.197"/><use xlink:href="#16" y="17.368"/><use xlink:href="#17" y="19.539"/><use xlink:href="#18" y="21.71"/><use xlink:href="#19" y="23.881"/><use xlink:href="#20" y="26.052"/><use xlink:href="#21" y="28.223"/><use xlink:href="#1" y="30.394"/><use xlink:href="#22" y="32.565"/><text y="36.406" class="g">exit</text></svg></svg></g></g></svg></svg>